<svg viewBox="0 0 1200 792" xmlns="http://www.w3.org/2000/svg" font-family="'Segoe UI', 'Helvetica Neue', Helvetica, Arial, sans-serif">
  <defs>
    <linearGradient id="pbg" x1="0" y1="0" x2="1" y2="1">
      <stop offset="0%" stop-color="#0d1117"/>
      <stop offset="100%" stop-color="#161b2e"/>
    </linearGradient>
  </defs>

  <rect width="1200" height="792" rx="18" fill="url(#pbg)"/>

  <!-- ============ CARD 1 — SGAI (blue) — Kaggle x Google ============ -->
  <g>
    <rect x="24" y="24" width="564" height="168" rx="12" fill="#161b29" stroke="#30363d"/>
    <rect x="24" y="24" width="6" height="168" rx="3" fill="#58a6ff"/>
    <rect x="414" y="38" width="158" height="24" rx="12" fill="#58a6ff" fill-opacity="0.15" stroke="#58a6ff" stroke-opacity="0.55"/>
    <text x="493" y="54" fill="#79c0ff" font-size="11.5" font-weight="700" text-anchor="middle">★ Kaggle × Google '26</text>
    <circle cx="56" cy="55" r="4" fill="#58a6ff"/>
    <text x="68" y="60" fill="#58a6ff" font-size="12" font-weight="700" letter-spacing="2">AI AGENTS · SECURITY</text>
    <text x="52" y="96" fill="#f0f6fc" font-size="23" font-weight="800">SGAI — SecureGuardAI</text>
    <text x="52" y="124" fill="#8b949e" font-size="14">Multi-agent reviewer that audits a codebase for CVEs &amp; unsafe</text>
    <text x="52" y="144" fill="#8b949e" font-size="14">patterns, risk-ranks findings, and proposes fixes.</text>
    <text x="52" y="176" fill="#c9d1d9" font-size="13" font-weight="600">Google ADK · MCP · Bandit · OSV.dev</text>
  </g>

  <!-- ============ CARD 2 — Aimura AI (purple) — Microsoft ============ -->
  <g>
    <rect x="612" y="24" width="564" height="168" rx="12" fill="#161b29" stroke="#30363d"/>
    <rect x="612" y="24" width="6" height="168" rx="3" fill="#a371f7"/>
    <rect x="1002" y="38" width="158" height="24" rx="12" fill="#a371f7" fill-opacity="0.15" stroke="#a371f7" stroke-opacity="0.55"/>
    <text x="1081" y="54" fill="#bc8cff" font-size="11.5" font-weight="700" text-anchor="middle">★ Microsoft Hackathon</text>
    <circle cx="644" cy="55" r="4" fill="#a371f7"/>
    <text x="656" y="60" fill="#a371f7" font-size="12" font-weight="700" letter-spacing="2">AGENTIC AI · EDTECH</text>
    <text x="640" y="96" fill="#f0f6fc" font-size="23" font-weight="800">Aimura AI</text>
    <text x="640" y="124" fill="#8b949e" font-size="14">Student career-planning OS — turns one guided intake into a</text>
    <text x="640" y="144" fill="#8b949e" font-size="14">grounded study-to-career plan with score &amp; AI mentor.</text>
    <text x="640" y="176" fill="#c9d1d9" font-size="13" font-weight="600">Next.js · Python · Azure / OpenAI</text>
  </g>

  <!-- ============ CARD 3 — Facility Trust Desk (green) — Databricks ============ -->
  <g>
    <rect x="24" y="216" width="564" height="168" rx="12" fill="#161b29" stroke="#30363d"/>
    <rect x="24" y="216" width="6" height="168" rx="3" fill="#7ee787"/>
    <rect x="446" y="230" width="126" height="24" rx="12" fill="#7ee787" fill-opacity="0.15" stroke="#7ee787" stroke-opacity="0.55"/>
    <text x="509" y="246" fill="#7ee787" font-size="11.5" font-weight="700" text-anchor="middle">★ Databricks '26</text>
    <circle cx="56" cy="247" r="4" fill="#7ee787"/>
    <text x="68" y="252" fill="#7ee787" font-size="12" font-weight="700" letter-spacing="2">RAG / LLM · HEALTHCARE</text>
    <text x="52" y="288" fill="#f0f6fc" font-size="23" font-weight="800">Facility Trust Desk</text>
    <text x="52" y="316" fill="#8b949e" font-size="14">Retrieve-then-judge pipeline turning messy health-facility</text>
    <text x="52" y="336" fill="#8b949e" font-size="14">records into cited, trustworthy capability verdicts.</text>
    <text x="52" y="368" fill="#c9d1d9" font-size="13" font-weight="600">RAG · LLM · Streamlit</text>
  </g>

  <!-- ============ CARD 4 — BatchHelm AI (blue) — Qwen Cloud ============ -->
  <g>
    <rect x="612" y="216" width="564" height="168" rx="12" fill="#161b29" stroke="#30363d"/>
    <rect x="612" y="216" width="6" height="168" rx="3" fill="#58a6ff"/>
    <rect x="992" y="230" width="168" height="24" rx="12" fill="#58a6ff" fill-opacity="0.15" stroke="#58a6ff" stroke-opacity="0.55"/>
    <text x="1076" y="246" fill="#79c0ff" font-size="11.5" font-weight="700" text-anchor="middle">★ Qwen Cloud Hackathon</text>
    <circle cx="644" cy="247" r="4" fill="#58a6ff"/>
    <text x="656" y="252" fill="#58a6ff" font-size="12" font-weight="700" letter-spacing="2">MULTI-AGENT · AUTOMATION</text>
    <text x="640" y="288" fill="#f0f6fc" font-size="23" font-weight="800">BatchHelm AI</text>
    <text x="640" y="316" fill="#8b949e" font-size="14">Autonomous recall command center coordinating product</text>
    <text x="640" y="336" fill="#8b949e" font-size="14">batches, shelves, and store teams in real time.</text>
    <text x="640" y="368" fill="#c9d1d9" font-size="13" font-weight="600">Multi-agent · Python · Automation</text>
  </g>

  <!-- ============ CARD 5 — Temporal Path Explorer (purple) ============ -->
  <g>
    <rect x="24" y="408" width="564" height="168" rx="12" fill="#161b29" stroke="#30363d"/>
    <rect x="24" y="408" width="6" height="168" rx="3" fill="#a371f7"/>
    <circle cx="56" cy="439" r="4" fill="#a371f7"/>
    <text x="68" y="444" fill="#a371f7" font-size="12" font-weight="700" letter-spacing="2">GRAPHS · MSc PROJECT</text>
    <text x="52" y="480" fill="#f0f6fc" font-size="23" font-weight="800">Temporal Path Explorer</text>
    <text x="52" y="508" fill="#8b949e" font-size="14">Streamlit app for exploring temporal paths in</text>
    <text x="52" y="528" fill="#8b949e" font-size="14">time-evolving networks. (Team 9, UoL)</text>
    <text x="52" y="560" fill="#c9d1d9" font-size="13" font-weight="600">Streamlit · NetworkX · Visualisation</text>
  </g>

  <!-- ============ CARD 6 — Delivery Time Prediction (green) ============ -->
  <g>
    <rect x="612" y="408" width="564" height="168" rx="12" fill="#161b29" stroke="#30363d"/>
    <rect x="612" y="408" width="6" height="168" rx="3" fill="#7ee787"/>
    <circle cx="644" cy="439" r="4" fill="#7ee787"/>
    <text x="656" y="444" fill="#7ee787" font-size="12" font-weight="700" letter-spacing="2">MACHINE LEARNING</text>
    <text x="640" y="480" fill="#f0f6fc" font-size="23" font-weight="800">Delivery Time Prediction</text>
    <text x="640" y="508" fill="#8b949e" font-size="14">End-to-end supervised ML pipeline on Porter data —</text>
    <text x="640" y="528" fill="#8b949e" font-size="14">R² = 0.8636 with RFE feature selection.</text>
    <text x="640" y="560" fill="#c9d1d9" font-size="13" font-weight="600">scikit-learn · Statsmodels · Jupyter</text>
  </g>

  <!-- ============ CARD 7 — NYC Taxi EDA (blue) ============ -->
  <g>
    <rect x="24" y="600" width="564" height="168" rx="12" fill="#161b29" stroke="#30363d"/>
    <rect x="24" y="600" width="6" height="168" rx="3" fill="#58a6ff"/>
    <circle cx="56" cy="631" r="4" fill="#58a6ff"/>
    <text x="68" y="636" fill="#58a6ff" font-size="12" font-weight="700" letter-spacing="2">DATA ANALYTICS · EDA</text>
    <text x="52" y="672" fill="#f0f6fc" font-size="23" font-weight="800">NYC Taxi EDA</text>
    <text x="52" y="700" fill="#8b949e" font-size="14">Cleaned &amp; analysed millions of 2023 trip records with</text>
    <text x="52" y="720" fill="#8b949e" font-size="14">geospatial zone insights for dispatch optimisation.</text>
    <text x="52" y="752" fill="#c9d1d9" font-size="13" font-weight="600">Pandas · Seaborn · GeoPandas</text>
  </g>

  <!-- ============ CARD 8 — CTA ============ -->
  <g>
    <rect x="612" y="600" width="564" height="168" rx="12" fill="#13182a" stroke="#58a6ff" stroke-opacity="0.55" stroke-dasharray="7 6"/>
    <text x="894" y="678" fill="#f0f6fc" font-size="21" font-weight="800" text-anchor="middle">Explore all repositories</text>
    <text x="894" y="710" fill="#58a6ff" font-size="15" font-weight="600" text-anchor="middle">→  github.com/ankitranjan-dsai</text>
    <text x="894" y="738" fill="#8b949e" font-size="13" text-anchor="middle">AI agents · Machine Learning · RAG · Analytics</text>
  </g>
</svg>
